<svg width="54" height="14" viewBox="0 0 54 14" fill="none" xmlns="http://www.w3.org/2000/svg">
<g clip-path="url(#clip0_1_20)">
<g clip-path="url(#clip1_1_20)">
<path fill-rule="evenodd" clip-rule="evenodd" d="M2.87324 1.88978C2.87475 2.10048 2.81364 2.30689 2.69767 2.48281C2.5817 2.65874 2.41612 2.79626 2.22188 2.87794C2.02765 2.95962 1.81352 2.98177 1.60667 2.94159C1.39983 2.90141 1.20959 2.8007 1.06006 2.65224C0.910533 2.50378 0.808465 2.31426 0.766801 2.10771C0.725137 1.90116 0.745751 1.68689 0.826035 1.49207C0.906318 1.29726 1.04267 1.13067 1.21776 1.01345C1.39285 0.896226 1.59879 0.833646 1.8095 0.833641C2.09059 0.832723 2.36055 0.943453 2.56002 1.1415C2.75949 1.33954 2.87214 1.6087 2.87324 1.88978ZM8.55455 1.88978C8.55605 2.10048 8.49494 2.30689 8.37897 2.48281C8.26301 2.65874 8.09742 2.79626 7.90319 2.87794C7.70895 2.95962 7.49482 2.98177 7.28798 2.94159C7.08114 2.90141 6.89089 2.8007 6.74136 2.65224C6.59184 2.50378 6.48977 2.31426 6.44811 2.10771C6.40644 1.90116 6.42706 1.68689 6.50734 1.49207C6.58762 1.29726 6.72397 1.13067 6.89906 1.01345C7.07415 0.896226 7.2801 0.833646 7.49081 0.833641C7.77165 0.83309 8.04125 0.943988 8.24042 1.14199C8.43959 1.34 8.55206 1.60894 8.55315 1.88978H8.55455ZM14.2352 1.88978C14.2367 2.10048 14.1756 2.30689 14.0596 2.48281C13.9436 2.65874 13.778 2.79626 13.5838 2.87794C13.3896 2.95962 13.1754 2.98177 12.9686 2.94159C12.7617 2.90141 12.5715 2.8007 12.422 2.65224C12.2724 2.50378 12.1704 2.31426 12.1287 2.10771C12.0871 1.90116 12.1077 1.68689 12.188 1.49207C12.2682 1.29726 12.4046 1.13067 12.5797 1.01345C12.7548 0.896226 12.9607 0.833646 13.1714 0.833641C13.4525 0.832723 13.7224 0.943453 13.9219 1.1415C14.1214 1.33954 14.2341 1.6087 14.2352 1.88978ZM19.9158 1.88978C19.9173 2.10051 19.8561 2.30694 19.7402 2.48289C19.6242 2.65883 19.4585 2.79634 19.2642 2.878C19.07 2.95966 18.8558 2.98177 18.6489 2.94154C18.4421 2.9013 18.2519 2.80052 18.1024 2.652C17.9529 2.50347 17.8508 2.31387 17.8092 2.10728C17.7677 1.90069 17.7884 1.6864 17.8688 1.4916C17.9492 1.29679 18.0856 1.13025 18.2608 1.01311C18.4359 0.895972 18.642 0.833509 18.8527 0.833641C18.9919 0.833186 19.1298 0.860144 19.2585 0.912974C19.3872 0.965804 19.5043 1.04347 19.603 1.14154C19.7017 1.23961 19.7801 1.35616 19.8338 1.48455C19.8875 1.61293 19.9153 1.75063 19.9158 1.88978ZM25.5971 1.88978C25.5986 2.10048 25.5375 2.30689 25.4215 2.48281C25.3055 2.65874 25.1399 2.79626 24.9457 2.87794C24.7515 2.95962 24.5373 2.98177 24.3305 2.94159C24.1237 2.90141 23.9334 2.8007 23.7839 2.65224C23.6344 2.50378 23.5323 2.31426 23.4906 2.10771C23.449 1.90116 23.4696 1.68689 23.5499 1.49207C23.6301 1.29726 23.7665 1.13067 23.9416 1.01345C24.1167 0.896226 24.3226 0.833646 24.5333 0.833641C24.8144 0.832723 25.0844 0.943453 25.2838 1.1415C25.4833 1.33954 25.596 1.6087 25.5971 1.88978ZM2.87187 7.39633C2.87324 7.607 2.81201 7.81333 2.69596 7.98917C2.57991 8.165 2.41425 8.30242 2.22001 8.38399C2.02576 8.46556 1.81166 8.48761 1.60486 8.44735C1.39806 8.40709 1.20789 8.30633 1.05844 8.15785C0.908979 8.00936 0.806975 7.81984 0.765367 7.61331C0.72376 7.40678 0.744423 7.19254 0.824728 6.99776C0.905032 6.80299 1.04137 6.63645 1.21645 6.51926C1.39153 6.40206 1.59745 6.33949 1.80813 6.33949C1.94745 6.33876 2.08556 6.36553 2.21453 6.41823C2.34349 6.47094 2.46079 6.54856 2.55972 6.64666C2.65866 6.74476 2.73728 6.8614 2.79107 6.98992C2.84487 7.11844 2.87279 7.25631 2.87324 7.39563L2.87187 7.39633ZM8.55315 7.39633C8.55452 7.607 8.49332 7.81333 8.37727 7.98917C8.26122 8.165 8.09556 8.30242 7.90131 8.38399C7.70706 8.46556 7.49296 8.48761 7.28617 8.44735C7.07937 8.40709 6.8892 8.30633 6.73974 8.15785C6.59028 8.00936 6.48828 7.81984 6.44667 7.61331C6.40507 7.40678 6.42573 7.19254 6.50603 6.99776C6.58634 6.80299 6.72266 6.63645 6.89773 6.51926C7.07281 6.40206 7.27876 6.33949 7.48944 6.33949C7.77052 6.33857 8.04046 6.44931 8.23993 6.64736C8.4394 6.8454 8.55206 7.11455 8.55315 7.39563V7.39633ZM14.2338 7.39633C14.2351 7.607 14.1739 7.81333 14.0579 7.98917C13.9418 8.165 13.7762 8.30242 13.5819 8.38399C13.3877 8.46556 13.1736 8.48761 12.9668 8.44735C12.76 8.40709 12.5698 8.30633 12.4204 8.15785C12.2709 8.00936 12.1689 7.81984 12.1273 7.61331C12.0857 7.40678 12.1063 7.19254 12.1866 6.99776C12.2669 6.80299 12.4033 6.63645 12.5783 6.51926C12.7534 6.40206 12.9594 6.33949 13.17 6.33949C13.3094 6.33876 13.4475 6.36553 13.5764 6.41823C13.7054 6.47094 13.8227 6.54856 13.9216 6.64666C14.0206 6.74476 14.0992 6.8614 14.153 6.98992C14.2068 7.11844 14.2347 7.25631 14.2352 7.39563L14.2338 7.39633ZM19.9144 7.39633C19.9157 7.60703 19.8545 7.81339 19.7384 7.98924C19.6223 8.16509 19.4567 8.30251 19.2624 8.38406C19.0681 8.46561 18.854 8.48763 18.6471 8.44731C18.4403 8.40699 18.2501 8.30616 18.1007 8.1576C17.9513 8.00905 17.8493 7.81946 17.8078 7.61289C17.7663 7.40631 17.787 7.19205 17.8674 6.99729C17.9479 6.80253 18.0843 6.63603 18.2595 6.51892C18.4346 6.40181 18.6406 6.33936 18.8514 6.33949C18.9906 6.33885 19.1286 6.36568 19.2575 6.41843C19.3864 6.47118 19.5036 6.54881 19.6025 6.6469C19.7013 6.74499 19.7799 6.86161 19.8337 6.99008C19.8874 7.11855 19.9153 7.25637 19.9158 7.39563L19.9144 7.39633ZM25.5957 7.39633C25.597 7.607 25.5358 7.81333 25.4198 7.98917C25.3037 8.165 25.1381 8.30242 24.9438 8.38399C24.7496 8.46556 24.5355 8.48761 24.3287 8.44735C24.1219 8.40709 23.9317 8.30633 23.7822 8.15785C23.6328 8.00936 23.5308 7.81984 23.4892 7.61331C23.4476 7.40678 23.4683 7.19254 23.5486 6.99776C23.6289 6.80299 23.7652 6.63645 23.9403 6.51926C24.1153 6.40206 24.3213 6.33949 24.532 6.33949C24.6713 6.33885 24.8093 6.36567 24.9382 6.41841C25.0672 6.47115 25.1844 6.54878 25.2833 6.64686C25.3823 6.74494 25.4609 6.86156 25.5147 6.99004C25.5685 7.11851 25.5965 7.25633 25.5971 7.39563L25.5957 7.39633ZM2.87048 12.9029C2.87185 13.1135 2.81062 13.3199 2.69457 13.4957C2.57852 13.6715 2.41288 13.809 2.21864 13.8905C2.02439 13.9721 1.81029 13.9942 1.60349 13.9539C1.39669 13.9136 1.2065 13.8129 1.05705 13.6644C0.907588 13.5159 0.805605 13.3264 0.763997 13.1199C0.72239 12.9133 0.743032 12.6991 0.823336 12.5043C0.903641 12.3095 1.03998 12.143 1.21506 12.0258C1.39013 11.9086 1.59606 11.846 1.80674 11.846C1.94621 11.8452 2.08449 11.8719 2.21362 11.9246C2.34275 11.9773 2.46021 12.055 2.55928 12.1532C2.65835 12.2513 2.73707 12.3681 2.79095 12.4967C2.84482 12.6254 2.87279 12.7634 2.87324 12.9029H2.87048ZM8.55178 12.9029C8.55315 13.1135 8.49193 13.3199 8.37588 13.4957C8.25983 13.6715 8.09419 13.809 7.89994 13.8905C7.70569 13.9721 7.49159 13.9942 7.2848 13.9539C7.078 13.9136 6.88781 13.8129 6.73835 13.6644C6.58889 13.5159 6.48689 13.3264 6.44528 13.1199C6.40367 12.9133 6.42434 12.6991 6.50464 12.5043C6.58495 12.3095 6.72129 12.143 6.89636 12.0258C7.07144 11.9086 7.27737 11.846 7.48805 11.846C7.6274 11.8454 7.76551 11.8722 7.89448 11.925C8.02345 11.9778 8.14076 12.0555 8.23968 12.1536C8.3386 12.2518 8.41722 12.3685 8.47101 12.4971C8.5248 12.6256 8.5527 12.7635 8.55315 12.9029H8.55178ZM14.2324 12.9029C14.2338 13.1135 14.1725 13.3199 14.0565 13.4957C13.9404 13.6715 13.7748 13.809 13.5806 13.8905C13.3863 13.9721 13.1722 13.9942 12.9654 13.9539C12.7586 13.9136 12.5684 13.8129 12.419 13.6644C12.2695 13.5159 12.1675 13.3264 12.1259 13.1199C12.0843 12.9133 12.1049 12.6991 12.1853 12.5043C12.2656 12.3095 12.4019 12.143 12.577 12.0258C12.7521 11.9086 12.958 11.846 13.1687 11.846C13.3081 11.8452 13.4464 11.8719 13.5755 11.9246C13.7046 11.9773 13.8221 12.055 13.9212 12.1532C14.0203 12.2513 14.099 12.3681 14.1529 12.4967C14.2067 12.6254 14.2347 12.7634 14.2352 12.9029H14.2324ZM19.913 12.9029C19.9144 13.1136 19.8531 13.3199 19.7371 13.4958C19.621 13.6716 19.4553 13.8091 19.261 13.8906C19.0667 13.9722 18.8526 13.9942 18.6458 13.9539C18.4389 13.9135 18.2488 13.8127 18.0993 13.6641C17.9499 13.5156 17.8479 13.326 17.8064 13.1194C17.7649 12.9129 17.7857 12.6986 17.8661 12.5038C17.9465 12.3091 18.0829 12.1426 18.2581 12.0255C18.4333 11.9084 18.6393 11.8459 18.85 11.846C18.9894 11.8452 19.1276 11.8719 19.2567 11.9246C19.3858 11.9774 19.5032 12.055 19.6022 12.1532C19.7013 12.2514 19.7799 12.3681 19.8337 12.4968C19.8875 12.6254 19.9154 12.7634 19.9158 12.9029H19.913ZM25.5943 12.9029C25.5957 13.1135 25.5345 13.3199 25.4184 13.4957C25.3024 13.6715 25.1367 13.809 24.9424 13.8905C24.7482 13.9721 24.5341 13.9942 24.3273 13.9539C24.1205 13.9136 23.9303 13.8129 23.7809 13.6644C23.6314 13.5159 23.5294 13.3264 23.4878 13.1199C23.4462 12.9133 23.4669 12.6991 23.5472 12.5043C23.6275 12.3095 23.7638 12.143 23.9389 12.0258C24.114 11.9086 24.3199 11.846 24.5306 11.846C24.67 11.8452 24.8083 11.8719 24.9374 11.9246C25.0666 11.9773 25.184 12.055 25.2831 12.1532C25.3822 12.2513 25.4609 12.3681 25.5148 12.4967C25.5687 12.6254 25.5966 12.7634 25.5971 12.9029H25.5943ZM31.2072 1.88978C31.2087 2.10048 31.1476 2.30689 31.0317 2.48281C30.9157 2.65874 30.7501 2.79626 30.5559 2.87794C30.3616 2.95962 30.1475 2.98177 29.9407 2.94159C29.7338 2.90141 29.5436 2.8007 29.3941 2.65224C29.2445 2.50378 29.1425 2.31426 29.1008 2.10771C29.0591 1.90116 29.0797 1.68689 29.16 1.49207C29.2403 1.29726 29.3766 1.13067 29.5517 1.01345C29.7268 0.896226 29.9328 0.833646 30.1435 0.833641C30.2828 0.832913 30.421 0.859663 30.55 0.912362C30.679 0.965062 30.7964 1.04268 30.8953 1.14077C30.9943 1.23886 31.073 1.3555 31.1269 1.48402C31.1808 1.61254 31.2088 1.75043 31.2093 1.88978H31.2072ZM36.8885 1.88978C36.89 2.10048 36.8289 2.30689 36.713 2.48281C36.597 2.65874 36.4314 2.79626 36.2372 2.87794C36.0429 2.95962 35.8288 2.98177 35.622 2.94159C35.4151 2.90141 35.2249 2.8007 35.0753 2.65224C34.9258 2.50378 34.8237 2.31426 34.7821 2.10771C34.7404 1.90116 34.761 1.68689 34.8413 1.49207C34.9216 1.29726 35.0579 1.13067 35.233 1.01345C35.4081 0.896226 35.6141 0.833646 35.8248 0.833641C35.9642 0.832822 36.1024 0.859504 36.2315 0.912162C36.3606 0.964821 36.478 1.04242 36.5771 1.14052C36.6761 1.23862 36.7549 1.35529 36.8088 1.48386C36.8627 1.61243 36.8907 1.75037 36.8913 1.88978H36.8885ZM42.5691 1.88978C42.5706 2.1006 42.5095 2.30711 42.3934 2.4831C42.2773 2.65908 42.1115 2.79661 41.9171 2.8782C41.7227 2.9598 41.5085 2.98179 41.3015 2.94139C41.0946 2.90098 40.9044 2.8 40.755 2.65126C40.6056 2.50252 40.5037 2.31275 40.4623 2.10601C40.421 1.89928 40.442 1.68492 40.5227 1.49015C40.6034 1.29539 40.7402 1.129 40.9156 1.01211C41.0911 0.89522 41.2973 0.833098 41.5082 0.833641C41.7893 0.832723 42.0592 0.943453 42.2587 1.1415C42.4581 1.33954 42.5708 1.6087 42.5719 1.88978H42.5691ZM48.2504 1.88978C48.2519 2.10048 48.1908 2.30689 48.0749 2.48281C47.9589 2.65874 47.7933 2.79626 47.5991 2.87794C47.4048 2.95962 47.1907 2.98177 46.9839 2.94159C46.777 2.90141 46.5868 2.8007 46.4372 2.65224C46.2877 2.50378 46.1857 2.31426 46.144 2.10771C46.1023 1.90116 46.1229 1.68689 46.2032 1.49207C46.2835 1.29726 46.4199 1.13067 46.5949 1.01345C46.77 0.896226 46.976 0.833646 47.1867 0.833641C47.3261 0.832822 47.4643 0.859504 47.5934 0.912162C47.7225 0.964821 47.8399 1.04242 47.939 1.14052C48.038 1.23862 48.1168 1.35529 48.1707 1.48386C48.2246 1.61243 48.2526 1.75037 48.2532 1.88978H48.2504ZM53.931 1.88978C53.9325 2.10048 53.8714 2.30689 53.7555 2.48281C53.6395 2.65874 53.4739 2.79626 53.2797 2.87794C53.0854 2.95962 52.8713 2.98177 52.6645 2.94159C52.4576 2.90141 52.2674 2.8007 52.1179 2.65224C51.9683 2.50378 51.8663 2.31426 51.8246 2.10771C51.7829 1.90116 51.8036 1.68689 51.8838 1.49207C51.9641 1.29726 52.1005 1.13067 52.2756 1.01345C52.4506 0.896226 52.6566 0.833646 52.8673 0.833641C53.0068 0.832731 53.1451 0.859344 53.2742 0.911962C53.4034 0.964579 53.5209 1.04217 53.6201 1.14027C53.7192 1.23838 53.798 1.35508 53.8519 1.48369C53.9059 1.61231 53.934 1.75031 53.9345 1.88978H53.931ZM31.2093 7.39563C31.2107 7.60631 31.1494 7.81265 31.0334 7.98848C30.9173 8.16432 30.7517 8.30173 30.5574 8.3833C30.3632 8.46487 30.1491 8.48693 29.9423 8.44667C29.7355 8.40641 29.5453 8.30565 29.3959 8.15716C29.2464 8.00867 29.1444 7.81914 29.1028 7.61261C29.0612 7.40608 29.0819 7.19185 29.1622 6.99708C29.2425 6.8023 29.3788 6.63575 29.5539 6.51856C29.729 6.40137 29.9349 6.33881 30.1456 6.3388C30.2848 6.33826 30.4228 6.36517 30.5517 6.418C30.6805 6.47083 30.7977 6.54855 30.8965 6.6467C30.9953 6.74486 31.0738 6.86153 31.1274 6.99004C31.1811 7.11854 31.2089 7.25637 31.2093 7.39563ZM36.8906 7.39563C36.892 7.60631 36.8307 7.81265 36.7147 7.98848C36.5986 8.16432 36.433 8.30173 36.2387 8.3833C36.0445 8.46487 35.8304 8.48693 35.6236 8.44667C35.4168 8.40641 35.2266 8.30565 35.0772 8.15716C34.9277 8.00867 34.8257 7.81914 34.7841 7.61261C34.7425 7.40608 34.7632 7.19185 34.8435 6.99708C34.9238 6.8023 35.0601 6.63575 35.2352 6.51856C35.4103 6.40137 35.6162 6.33881 35.8269 6.3388C35.9662 6.33826 36.1042 6.36517 36.2331 6.41799C36.362 6.47081 36.4792 6.54852 36.5781 6.64666C36.6769 6.74481 36.7554 6.86147 36.8092 6.98998C36.8629 7.1185 36.8902 7.25633 36.8906 7.39563ZM42.5712 7.39563C42.5726 7.60631 42.5114 7.81265 42.3953 7.98848C42.2793 8.16432 42.1136 8.30173 41.9193 8.3833C41.7251 8.46487 41.511 8.48693 41.3042 8.44667C41.0974 8.40641 40.9072 8.30565 40.7578 8.15716C40.6083 8.00867 40.5063 7.81914 40.4647 7.61261C40.4231 7.40608 40.4438 7.19185 40.5241 6.99708C40.6044 6.8023 40.7407 6.63575 40.9158 6.51856C41.0909 6.40137 41.2968 6.33881 41.5075 6.3388C41.6468 6.33817 41.7849 6.36501 41.9138 6.4178C42.0427 6.47059 42.16 6.5483 42.2589 6.64646C42.3577 6.74462 42.4363 6.86132 42.49 6.98987C42.5437 7.11842 42.5709 7.25631 42.5712 7.39563ZM48.2525 7.39563C48.2539 7.60631 48.1927 7.81265 48.0766 7.98848C47.9606 8.16432 47.7949 8.30173 47.6007 8.3833C47.4064 8.46487 47.1923 8.48693 46.9855 8.44667C46.7787 8.40641 46.5885 8.30565 46.4391 8.15716C46.2896 8.00867 46.1876 7.81914 46.146 7.61261C46.1044 7.40608 46.1251 7.19185 46.2054 6.99708C46.2857 6.8023 46.422 6.63575 46.5971 6.51856C46.7722 6.40137 46.9781 6.33881 47.1888 6.3388C47.3281 6.33826 47.4661 6.36517 47.595 6.41799C47.7239 6.47081 47.8411 6.54852 47.94 6.64666C48.0388 6.74481 48.1174 6.86147 48.1711 6.98998C48.2249 7.1185 48.2527 7.25633 48.2532 7.39563H48.2525ZM53.9331 7.39563C53.9345 7.60631 53.8733 7.81265 53.7572 7.98848C53.6412 8.16432 53.4755 8.30173 53.2813 8.3833C53.087 8.46487 52.8729 8.48693 52.6661 8.44667C52.4593 8.40641 52.2691 8.30565 52.1197 8.15716C51.9702 8.00867 51.8682 7.81914 51.8266 7.61261C51.785 7.40608 51.8057 7.19185 51.886 6.99708C51.9663 6.8023 52.1026 6.63575 52.2777 6.51856C52.4528 6.40137 52.6587 6.33881 52.8694 6.3388C53.0088 6.33808 53.1469 6.36486 53.2759 6.41761C53.4049 6.47036 53.5223 6.54805 53.6212 6.64622C53.7202 6.74439 53.7988 6.86111 53.8525 6.98971C53.9063 7.11831 53.9341 7.25625 53.9345 7.39563H53.9331ZM31.2079 12.9022C31.2093 13.1129 31.1481 13.3192 31.032 13.495C30.916 13.6709 30.7503 13.8083 30.5561 13.8898C30.3618 13.9714 30.1477 13.9935 29.9409 13.9532C29.7341 13.913 29.5439 13.8122 29.3945 13.6637C29.245 13.5152 29.143 13.3257 29.1014 13.1192C29.0598 12.9126 29.0805 12.6984 29.1608 12.5036C29.2411 12.3088 29.3774 12.1423 29.5525 12.0251C29.7276 11.9079 29.9335 11.8454 30.1442 11.8454C30.2836 11.8447 30.4218 11.8716 30.5508 11.9244C30.6798 11.9772 30.7971 12.055 30.8961 12.1532C30.995 12.2514 31.0736 12.3682 31.1273 12.4968C31.1811 12.6255 31.2089 12.7635 31.2093 12.9029L31.2079 12.9022ZM36.8892 12.9022C36.8906 13.1129 36.8294 13.3192 36.7133 13.495C36.5973 13.6709 36.4316 13.8083 36.2374 13.8898C36.0431 13.9714 35.829 13.9935 35.6222 13.9532C35.4154 13.913 35.2252 13.8122 35.0758 13.6637C34.9263 13.5152 34.8243 13.3257 34.7827 13.1192C34.7411 12.9126 34.7618 12.6984 34.8421 12.5036C34.9224 12.3088 35.0587 12.1423 35.2338 12.0251C35.4089 11.9079 35.6148 11.8454 35.8255 11.8454C35.9649 11.8446 36.1032 11.8714 36.2323 11.9242C36.3614 11.977 36.4788 12.0547 36.5778 12.153C36.6768 12.2512 36.7555 12.368 36.8093 12.4967C36.863 12.6254 36.8909 12.7634 36.8913 12.9029L36.8892 12.9022ZM42.5698 12.9022C42.5712 13.1129 42.51 13.3192 42.3939 13.495C42.2779 13.6709 42.1122 13.8083 41.918 13.8898C41.7237 13.9714 41.5096 13.9935 41.3028 13.9532C41.096 13.913 40.9058 13.8122 40.7564 13.6637C40.6069 13.5152 40.5049 13.3257 40.4633 13.1192C40.4217 12.9126 40.4424 12.6984 40.5227 12.5036C40.603 12.3088 40.7393 12.1423 40.9144 12.0251C41.0895 11.9079 41.2954 11.8454 41.5061 11.8454C41.6456 11.8446 41.7838 11.8714 41.9129 11.9242C42.042 11.977 42.1594 12.0547 42.2584 12.153C42.3574 12.2512 42.4361 12.368 42.4899 12.4967C42.5437 12.6254 42.5715 12.7634 42.5719 12.9029L42.5698 12.9022ZM48.2511 12.9022C48.2525 13.1129 48.1913 13.3192 48.0752 13.495C47.9592 13.6709 47.7935 13.8083 47.5993 13.8898C47.405 13.9714 47.1909 13.9935 46.9841 13.9532C46.7773 13.913 46.5872 13.8122 46.4377 13.6637C46.2882 13.5152 46.1862 13.3257 46.1446 13.1192C46.103 12.9126 46.1237 12.6984 46.204 12.5036C46.2843 12.3088 46.4206 12.1423 46.5957 12.0251C46.7708 11.9079 46.9767 11.8454 47.1874 11.8454C47.3269 11.8446 47.4651 11.8714 47.5942 11.9242C47.7233 11.977 47.8407 12.0547 47.9397 12.153C48.0387 12.2512 48.1174 12.368 48.1712 12.4967C48.225 12.6254 48.2528 12.7634 48.2532 12.9029L48.2511 12.9022ZM53.9317 12.9022C53.9331 13.1129 53.8719 13.3192 53.7558 13.495C53.6398 13.6709 53.4741 13.8083 53.2799 13.8898C53.0856 13.9714 52.8715 13.9935 52.6647 13.9532C52.458 13.913 52.2678 13.8122 52.1183 13.6637C51.9688 13.5152 51.8668 13.3257 51.8252 13.1192C51.7836 12.9126 51.8043 12.6984 51.8846 12.5036C51.9649 12.3088 52.1012 12.1423 52.2763 12.0251C52.4514 11.9079 52.6573 11.8454 52.868 11.8454C53.0075 11.8445 53.1458 11.8713 53.275 11.924C53.4042 11.9768 53.5217 12.0545 53.6208 12.1527C53.7198 12.251 53.7986 12.3678 53.8524 12.4965C53.9062 12.6252 53.9341 12.7633 53.9345 12.9029L53.9317 12.9022Z" fill="#106AAD"/>
</g>
</g>
<defs>
<clipPath id="clip0_1_20">
<rect width="53.1866" height="13.124" fill="white" transform="translate(0.748047 0.833649)"/>
</clipPath>
<clipPath id="clip1_1_20">
<rect width="53.1866" height="13.124" fill="white" transform="translate(0.748047 0.833649)"/>
</clipPath>
</defs>
</svg>
